<svg width="24" height="20" viewBox="0 0 24 20" fill="none" xmlns="http://www.w3.org/2000/svg">
<path d="M22 6V18H6V6H22ZM24 4H4V20H24V4ZM16 15.677V16H8V15.667C7.996 14.777 8.035 14.269 9.059 14.033C10.182 13.774 11.289 13.542 10.756 12.56C9.179 9.649 10.307 8 12 8C13.662 8 14.816 9.588 13.244 12.56C12.726 13.536 13.795 13.768 14.941 14.033C15.969 14.27 16.004 14.781 16 15.677V15.677ZM20 8H17V10H20V8ZM20 11H17V13H20V11ZM20 14H17V16H20V14ZM22 2H2V18H3V3H22V2ZM20 0H0V16H1V1H20V0Z" fill="white"/>
</svg>
